name C:\Users\u0101727\Documents\MyRepositories\upper-imu-dc\Results\main_tracking\Case_14\ABD01_linearAccelerations_bodyFrame.mot
datacolumns 4
datarows 47
range 4.56000000 5.02000000
endheader 
time	radius_imu_x	radius_imu_y	radius_imu_z	
          4.56000000	         -1.03747660	          1.04041245	          9.37678288	
          4.57000000	         -1.01641546	          0.94874017	          9.43102811	
          4.58000000	         -1.00204325	          0.85723246	          9.49230506	
          4.59000000	         -0.99330701	          0.76589707	          9.55625737	
          4.60000000	         -0.99177894	          0.67446216	          9.61766502	
          4.61000000	         -1.00000029	          0.58314655	          9.67044251	
          4.62000000	         -1.01958402	          0.49303116	          9.70825702	
          4.63000000	         -1.05030014	          0.40561861	          9.72576943	
          4.64000000	         -1.09016834	          0.32184803	          9.72010171	
          4.65000000	         -1.13570904	          0.24145423	          9.69191361	
          4.66000000	         -1.18175133	          0.16330891	          9.64546860	
          4.67000000	         -1.22104333	          0.08647681	          9.58744788	
          4.68000000	         -1.24457678	          0.01099759	          9.52503999	
          4.69000000	         -1.24344558	         -0.06241164	          9.46432274	
          4.70000000	         -1.21193521	         -0.13348584	          9.40959474	
          4.71000000	         -1.15034207	         -0.20339926	          9.36354186	
          4.72000000	         -1.06602126	         -0.27498741	          9.32772804	
          4.73000000	         -0.97197513	         -0.35192180	          9.30287124	
          4.74000000	         -0.88340286	         -0.43731496	          9.28901836	
          4.75000000	         -0.81293870	         -0.53235170	          9.28549222	
          4.76000000	         -0.76638130	         -0.63556422	          9.29095073	
          4.77000000	         -0.74106739	         -0.74307486	          9.30368617	
          4.78000000	         -0.72792123	         -0.84965085	          9.32195236	
          4.79000000	         -0.71585226	         -0.95001623	          9.34402060	
          4.80000000	         -0.69582970	         -1.03985360	          9.36799571	
          4.81000000	         -0.66284873	         -1.11635117	          9.39174148	
          4.82000000	         -0.61583472	         -1.17852039	          9.41320502	
          4.83000000	         -0.55657774	         -1.22744170	          9.43107584	
          4.84000000	         -0.48877775	         -1.26631470	          9.44545271	
          4.85000000	         -0.41765274	         -1.30014512	          9.45813481	
          4.86000000	         -0.34993710	         -1.33494565	          9.47232133	
          4.87000000	         -0.29378322	         -1.37662860	          9.49175953	
          4.88000000	         -0.25823164	         -1.42994888	          9.51959259	
          4.89000000	         -0.25207120	         -1.49773429	          9.55728665	
          4.90000000	         -0.28199845	         -1.58032477	          9.60395151	
          4.91000000	         -0.35021759	         -1.67515216	          9.65614647	
          4.92000000	         -0.45242133	         -1.77681090	          9.70815515	
          4.93000000	         -0.57767910	         -1.87817347	          9.75275039	
          4.94000000	         -0.71074028	         -1.97245573	          9.78238234	
          4.95000000	         -0.83553202	         -2.05521293	          9.79061782	
          4.96000000	         -0.93832064	         -2.12527606	          9.77341718	
          4.97000000	         -1.00973924	         -2.18442126	          9.73008879	
          4.98000000	         -1.04563514	         -2.23624740	          9.66351001	
          4.99000000	         -1.04669272	         -2.28484539	          9.57928290	
          5.00000000	         -1.01728209	         -2.33382910	          9.48446135	
          5.01000000	         -0.96371197	         -2.38515053	          9.38593878	
          5.02000000	         -0.89473375	         -2.44133499	          9.29073707	
